<svg width="179" height="179" viewBox="0 0 179 179" fill="none" xmlns="http://www.w3.org/2000/svg">
<g clip-path="url(#clip0_23_282)">
<rect width="179" height="179" rx="89.5" fill="#A2E3F6"/>
<path d="M156.244 101.486C147.573 116.332 143.317 136.408 149.998 140.31C156.679 144.212 171.722 123.48 173.694 99.7347C174.955 84.5441 171.858 64.9782 165.177 61.0766C158.496 57.175 164.914 86.6391 156.244 101.486Z" fill="white"/>
<path d="M148.155 42.5957C156.088 51.3372 158.563 56.1309 160.695 54.766C164.91 52.0689 158.979 37.9684 148.272 29.3762C137.235 20.5195 133.602 23.171 132.002 26.9169C130.402 30.6629 140.222 33.8543 148.155 42.5957Z" fill="white"/>
<path d="M138.725 91.7375C138.725 97.9162 133.716 89.5 127.537 89.5C121.359 89.5 116.35 97.9162 116.35 91.7375C116.35 85.5588 121.359 80.55 127.537 80.55C133.716 80.55 138.725 85.5588 138.725 91.7375Z" fill="#222222"/>
<path d="M62.65 91.7375C62.65 97.9162 57.6412 89.5 51.4625 89.5C45.2838 89.5 40.275 97.9162 40.275 91.7375C40.275 85.5588 45.2838 80.55 51.4625 80.55C57.6412 80.55 62.65 85.5588 62.65 91.7375Z" fill="#222222"/>
</g>
<defs>
<clipPath id="clip0_23_282">
<rect width="179" height="179" rx="89.5" fill="white"/>
</clipPath>
</defs>
</svg>
