<svg width="18" height="18" viewBox="0 0 18 18" fill="none" xmlns="http://www.w3.org/2000/svg">
<g clip-path="url(#clip0_23_435)">
<rect width="18" height="18" rx="9" fill="#A2E3F6"/>
<path d="M15.7116 10.2053C14.8397 11.6982 14.4117 13.7171 15.0835 14.1094C15.7554 14.5017 17.268 12.417 17.4663 10.0292C17.5932 8.50166 17.2817 6.53413 16.6099 6.14179C15.9381 5.74945 16.5835 8.71233 15.7116 10.2053Z" fill="white"/>
<path d="M14.8982 4.28341C15.6959 5.16244 15.9448 5.64449 16.1593 5.50724C16.5831 5.23602 15.9867 3.8181 14.91 2.95408C13.8002 2.06346 13.4348 2.33009 13.2739 2.70678C13.1131 3.08346 14.1005 3.40439 14.8982 4.28341Z" fill="white"/>
<ellipse cx="5.17505" cy="8.325" rx="1.125" ry="1.575" fill="#222222"/>
<ellipse cx="12.825" cy="8.325" rx="1.125" ry="1.575" fill="#222222"/>
</g>
<defs>
<clipPath id="clip0_23_435">
<rect width="18" height="18" rx="9" fill="white"/>
</clipPath>
</defs>
</svg>
