<svg width="40" height="40" viewBox="0 0 40 40" fill="none" xmlns="http://www.w3.org/2000/svg">
<g clip-path="url(#clip0_40_639)">
<rect width="40" height="40" rx="20" fill="#A2E3F6"/>
<path d="M34.9148 22.6784C32.9773 25.996 32.0262 30.4823 33.5192 31.3542C35.0121 32.2261 38.3735 27.5933 38.8142 22.2871C39.0961 18.8925 38.404 14.5203 36.911 13.6484C35.4181 12.7765 36.8523 19.3607 34.9148 22.6784Z" fill="white"/>
<path d="M33.1072 9.51859C34.8799 11.472 35.433 12.5432 35.9096 12.2382C36.8514 11.6355 35.5261 8.48456 33.1335 6.56452C30.6671 4.58535 29.8551 5.17787 29.4977 6.01495C29.1402 6.85203 31.3345 7.56519 33.1072 9.51859Z" fill="white"/>
<path d="M31 20.5C31 21.8807 29.8807 20 28.5 20C27.1193 20 26 21.8807 26 20.5C26 19.1193 27.1193 18 28.5 18C29.8807 18 31 19.1193 31 20.5Z" fill="#222222"/>
<path d="M14 20.5C14 21.8807 12.8807 20 11.5 20C10.1193 20 9 21.8807 9 20.5C9 19.1193 10.1193 18 11.5 18C12.8807 18 14 19.1193 14 20.5Z" fill="#222222"/>
</g>
<defs>
<clipPath id="clip0_40_639">
<rect width="40" height="40" rx="20" fill="white"/>
</clipPath>
</defs>
</svg>
