<svg width="44" height="40" viewBox="0 0 44 40" fill="none" xmlns="http://www.w3.org/2000/svg">
<g clip-path="url(#clip0_97_96)">
<rect x="2" width="40" height="40" rx="20" fill="#A2E3F6"/>
<path d="M36.9148 22.6784C34.9773 25.996 34.0262 30.4823 35.5192 31.3542C37.0121 32.2261 40.3735 27.5933 40.8142 22.2871C41.0961 18.8925 40.404 14.5203 38.911 13.6484C37.4181 12.7765 38.8523 19.3607 36.9148 22.6784Z" fill="white"/>
<path d="M35.1072 9.51859C36.8799 11.472 37.433 12.5432 37.9096 12.2382C38.8514 11.6355 37.5261 8.48456 35.1335 6.56452C32.6671 4.58535 31.8551 5.17787 31.4977 6.01495C31.1402 6.85203 33.3345 7.56519 35.1072 9.51859Z" fill="white"/>
<path d="M33 20.5C33 21.8807 31.8807 20 30.5 20C29.1193 20 28 21.8807 28 20.5C28 19.1193 29.1193 18 30.5 18C31.8807 18 33 19.1193 33 20.5Z" fill="#222222"/>
<path d="M16 20.5C16 21.8807 14.8807 20 13.5 20C12.1193 20 11 21.8807 11 20.5C11 19.1193 12.1193 18 13.5 18C14.8807 18 16 19.1193 16 20.5Z" fill="#222222"/>
</g>
<path d="M23.4568 18.0989C22.7267 15.5436 24.6454 13 27.3029 13H38.6971C41.3546 13 43.2733 15.5436 42.5432 18.0989L40.8289 24.0989C40.3383 25.8161 38.7687 27 36.9828 27H29.0172C27.2313 27 25.6617 25.8161 25.1711 24.0989L23.4568 18.0989Z" fill="#222222"/>
<path d="M1.45682 18.0989C0.726749 15.5436 2.6454 13 5.30292 13H16.6971C19.3546 13 21.2733 15.5436 20.5432 18.0989L18.8289 24.0989C18.3383 25.8161 16.7687 27 14.9828 27H7.01721C5.23128 27 3.66174 25.8161 3.17111 24.0989L1.45682 18.0989Z" fill="#222222"/>
<defs>
<clipPath id="clip0_97_96">
<rect x="2" width="40" height="40" rx="20" fill="white"/>
</clipPath>
</defs>
</svg>
