<svg width="40" height="40" viewBox="0 0 40 40" fill="none" xmlns="http://www.w3.org/2000/svg">
<g clip-path="url(#clip0_16_56)">
<rect width="40" height="40" rx="20" fill="#A2E3F6"/>
<path d="M34.9148 22.6784C32.9773 25.996 32.0262 30.4823 33.5192 31.3542C35.0121 32.2261 38.3735 27.5933 38.8142 22.2871C39.0961 18.8925 38.404 14.5203 36.911 13.6484C35.4181 12.7765 36.8523 19.3607 34.9148 22.6784Z" fill="white"/>
<path d="M33.1072 9.51859C34.8799 11.472 35.433 12.5432 35.9096 12.2382C36.8514 11.6355 35.5261 8.48456 33.1335 6.56452C30.6671 4.58535 29.8551 5.17787 29.4977 6.01495C29.1402 6.85203 31.3345 7.56519 33.1072 9.51859Z" fill="white"/>
<path d="M9 18.5063C9 17.1256 10.1193 19.0063 11.5 19.0063C12.8807 19.0063 14 17.1256 14 18.5063C14 19.887 12.8807 21.0063 11.5 21.0063C10.1193 21.0063 9 19.887 9 18.5063Z" fill="#222222"/>
<path d="M26 18.5063C26 17.1256 27.1193 19.0063 28.5 19.0063C29.8807 19.0063 31 17.1256 31 18.5063C31 19.887 29.8807 21.0063 28.5 21.0063C27.1193 21.0063 26 19.887 26 18.5063Z" fill="#222222"/>
<path d="M10.4999 23C10.9053 21.5 8.99999 18.9 8.99999 18.5C8.99999 18.1 7.00001 21.5 7.50001 23C8.00001 24.5 10.0946 24.5 10.4999 23Z" fill="white"/>
</g>
<defs>
<clipPath id="clip0_16_56">
<rect width="40" height="40" rx="20" fill="white"/>
</clipPath>
</defs>
</svg>
