<svg width="23" height="22" viewBox="0 0 23 22" fill="none" xmlns="http://www.w3.org/2000/svg">
<path d="M17.9997 13C18.5519 13.0001 18.9997 13.4478 18.9997 14V16.5H21.4997C22.0519 16.5001 22.4997 16.9478 22.4997 17.5C22.4997 18.0522 22.0519 18.4999 21.4997 18.5H18.9997V21C18.9997 21.5522 18.5519 21.9999 17.9997 22C17.4475 22 16.9997 21.5523 16.9997 21V18.5H14.4997C13.9475 18.5 13.4997 18.0523 13.4997 17.5C13.4997 16.9477 13.9475 16.5 14.4997 16.5H16.9997V14C16.9997 13.4477 17.4475 13 17.9997 13ZM10.4997 0C16.0225 0.00016 20.4997 4.47725 20.4997 10C20.4997 10.3748 20.4795 10.7456 20.4392 11.1104L18.4509 10.8896C18.4831 10.5979 18.4997 10.3011 18.4997 10C18.4997 5.58182 14.9179 2.00016 10.4997 2C6.08142 2 2.49969 5.58172 2.49969 10C2.49969 11.359 2.8375 12.6363 3.43329 13.7549C3.55629 13.9859 3.58426 14.2567 3.51044 14.5078L2.47528 18.0234L5.99188 16.9893L6.08758 16.9658C6.3105 16.9235 6.54283 16.9588 6.74481 17.0664C7.86336 17.6621 9.14075 18 10.4997 18C10.8007 18 11.0977 17.9834 11.3894 17.9512L11.6101 19.9395C11.2454 19.9798 10.8744 20 10.4997 20C8.95315 20 7.4867 19.647 6.17743 19.0186L1.28192 20.459C0.930914 20.5622 0.551424 20.4657 0.292664 20.207C0.0339038 19.9483 -0.0625462 19.5688 0.0407138 19.2178L1.48016 14.3213C0.851984 13.0123 0.499694 11.5461 0.499694 10C0.499694 4.47715 4.97685 0 10.4997 0ZM11.7497 11.25C12.1638 11.2501 12.4997 11.5859 12.4997 12C12.4997 12.4141 12.1638 12.7499 11.7497 12.75H7.24969C6.83548 12.75 6.49969 12.4142 6.49969 12C6.49969 11.5858 6.83548 11.25 7.24969 11.25H11.7497ZM13.7497 7.25C14.1638 7.25015 14.4997 7.58588 14.4997 8C14.4997 8.4141 14.1638 8.7499 13.7497 8.75H7.24969C6.83548 8.75 6.49969 8.4142 6.49969 8C6.49969 7.58579 6.83548 7.25 7.24969 7.25H13.7497Z" fill="white"/>
</svg>
